<?xml version="1.0" standalone="no"?>
<!DOCTYPE svg PUBLIC "-//W3C//DTD SVG 20010904//EN"
 "http://www.w3.org/TR/2001/REC-SVG-20010904/DTD/svg10.dtd">
<svg version="1.0" xmlns="http://www.w3.org/2000/svg"
 width="261.000000pt" height="261.000000pt" viewBox="0 0 261.000000 261.000000"
 preserveAspectRatio="xMidYMid meet">
<metadata>
Created by potrace 1.11, written by Peter Selinger 2001-2013
</metadata>
<g transform="translate(0.000000,261.000000) scale(0.100000,-0.100000)"
fill="#000000" stroke="none">
<path d="M111 2317 c-35 -12 -63 -26 -62 -32 0 -5 18 -11 38 -13 134 -11 259
-113 399 -323 68 -102 67 -97 49 -199 -3 -14 -7 -38 -9 -55 -2 -16 -7 -52 -11
-80 -4 -27 -9 -59 -10 -70 -2 -11 -17 -119 -35 -240 -17 -121 -33 -236 -36
-255 -3 -19 -7 -46 -9 -60 -2 -14 -7 -45 -10 -70 -4 -24 -13 -57 -21 -73 -17
-31 -83 -66 -126 -67 -16 0 -28 -4 -28 -10 0 -6 77 -10 211 -10 137 0 208 3
204 10 -3 6 -19 10 -35 10 -44 0 -79 43 -75 90 2 14 6 48 9 75 14 106 16 121
21 170 3 28 10 86 16 130 6 44 12 96 15 115 4 38 20 165 30 245 3 28 7 51 8
52 2 2 42 -73 153 -287 42 -80 83 -158 93 -175 10 -16 50 -93 91 -170 40 -77
92 -176 115 -220 42 -81 64 -103 64 -66 0 65 34 129 408 779 20 34 39 62 43
62 3 0 9 -21 13 -47 3 -27 8 -59 11 -73 2 -14 22 -131 44 -260 22 -129 50
-266 62 -305 76 -249 222 -419 424 -495 69 -26 219 -35 300 -19 28 5 58 11 67
12 10 0 20 7 22 14 4 9 -6 13 -34 14 -22 1 -43 2 -47 3 -5 1 -27 6 -51 10 -82
15 -168 77 -229 166 -79 116 -125 247 -163 465 -5 28 -20 115 -34 195 -14 80
-28 156 -31 170 -3 14 -8 39 -10 55 -9 51 -44 248 -49 280 -12 66 -22 118 -41
230 -1 11 -6 38 -10 60 -4 22 -9 49 -11 60 -10 53 -16 75 -24 75 -4 0 -119
-192 -255 -427 -277 -479 -327 -563 -335 -563 -3 0 -23 35 -45 78 -21 42 -98
187 -171 322 -72 135 -145 271 -162 303 -106 199 -263 349 -428 409 -88 32
-229 34 -313 5z"/>
</g>
</svg>
