<?xml version="1.0" encoding="UTF-8" standalone="no"?>
<svg
   xmlns:dc="http://purl.org/dc/elements/1.1/"
   xmlns:cc="http://creativecommons.org/ns#"
   xmlns:rdf="http://www.w3.org/1999/02/22-rdf-syntax-ns#"
   xmlns:svg="http://www.w3.org/2000/svg"
   xmlns="http://www.w3.org/2000/svg"
   xmlns:sodipodi="http://sodipodi.sourceforge.net/DTD/sodipodi-0.dtd"
   xmlns:inkscape="http://www.inkscape.org/namespaces/inkscape"
   version="1.1"
   width="20"
   height="20"
   viewBox="0 0 20 20"
   id="svg3771"
   sodipodi:docname="account-circle2.svg"
   inkscape:version="0.92.3 (2405546, 2018-03-11)"
   inkscape:export-filename="/home/jpe/dev/web/mute/src/assets/images/icons/account-circle-whbg-64.png"
   inkscape:export-xdpi="256"
   inkscape:export-ydpi="256">
  <metadata
     id="metadata3777">
    <rdf:RDF>
      <cc:Work
         rdf:about="">
        <dc:format>image/svg+xml</dc:format>
        <dc:type
           rdf:resource="http://purl.org/dc/dcmitype/StillImage" />
        <dc:title></dc:title>
      </cc:Work>
    </rdf:RDF>
  </metadata>
  <defs
     id="defs3775" />
  <sodipodi:namedview
     pagecolor="#ffffff"
     bordercolor="#666666"
     borderopacity="1"
     objecttolerance="10"
     gridtolerance="10"
     guidetolerance="10"
     inkscape:pageopacity="1"
     inkscape:pageshadow="2"
     inkscape:window-width="1920"
     inkscape:window-height="1016"
     id="namedview3773"
     showgrid="false"
     inkscape:zoom="11.313708"
     inkscape:cx="33.238768"
     inkscape:cy="11.843062"
     inkscape:window-x="1920"
     inkscape:window-y="27"
     inkscape:window-maximized="1"
     inkscape:current-layer="svg3771"
     inkscape:pagecheckerboard="false"
     showborder="true"
     borderlayer="false"
     inkscape:showpageshadow="true"
     fit-margin-top="0"
     fit-margin-left="0"
     fit-margin-right="0"
     fit-margin-bottom="0" />
  <path
     d="m 10.000001,17.200001 c -2.500001,0 -4.710001,-1.28 -6.000001,-3.2 0.03,-2 3.999999,-3.1 6.000001,-3.1 2,0 5.97,1.1 6,3.1 -1.29,1.92 -3.5,3.2 -6,3.2 M 10.000001,3 a 3,3 0 0 1 3,3 3,3 0 0 1 -3,3.0000007 A 3,3 0 0 1 7,6 3,3 0 0 1 10.000001,3 m 0,-3 A 10,10 0 0 0 0,10.000001 a 10,10 0 0 0 10.000001,10 10,10 0 0 0 10,-10 C 20.000001,4.47 15.500001,0 10.000001,0 Z"
     id="path3769"
     inkscape:connector-curvature="0"
     inkscape:export-xdpi="307.20001"
     inkscape:export-ydpi="307.20001" />
</svg>
